<?xml version="1.0" encoding="utf-8"?>
<!-- Generator: Adobe Illustrator 27.9.0, SVG Export Plug-In . SVG Version: 6.00 Build 0)  -->
<svg version="1.1" id="Ebene_1" xmlns="http://www.w3.org/2000/svg" xmlns:xlink="http://www.w3.org/1999/xlink" x="0px" y="0px"
	 viewBox="0 0 48.1 55.7" style="enable-background:new 0 0 48.1 55.7;" xml:space="preserve">
<style type="text/css">
	.st0{fill:none;stroke:#000000;stroke-width:3.3;stroke-linejoin:round;}
</style>
<path class="st0" d="M45.9,48.9l-1.2-9.2c-0.2-1.9-1-3.7-2.1-5.2c-0.7-0.9-1.5-1.7-2.4-2.4c-0.9-0.7-1.9-1.2-3-1.6l-7.4-2.5l-1-2.1
	c3.4-2.7,5.7-8,5.7-12.5c0-6.4-3.9-11.2-10.4-11.2S13.8,6.9,13.8,13.3c0,4.5,2.4,9.8,5.7,12.5l-1,2.1l-7.4,2.5
	c-2.2,0.8-4.1,2.2-5.4,4C4.7,36,4,37.8,3.8,39.7l-1.2,9.2c-0.3,2.4,1.6,4.6,4.1,4.6h35.2C44.3,53.5,46.2,51.3,45.9,48.9z"/>
</svg>
