<?xml version="1.0" encoding="utf-8"?>
<!-- Generator: Adobe Illustrator 27.9.0, SVG Export Plug-In . SVG Version: 6.00 Build 0)  -->
<svg version="1.1" id="Ebene_1" xmlns="http://www.w3.org/2000/svg" xmlns:xlink="http://www.w3.org/1999/xlink" x="0px" y="0px"
	 viewBox="0 0 46.3 39.7" style="enable-background:new 0 0 46.3 39.7;" xml:space="preserve">
<path d="M23.7,19.5c0.1,0,0.2,0,0.3,0h0h0c2.5,0.1,4.4,1.3,5.2,3.2c1.1,3,3.1,5.6,5,8.2l0.7,1c0.4,0.6,0.6,1.2,0.6,1.9
	c0,0.6-0.2,1.3-0.5,1.8c-0.5,0.7-1.2,1.2-1.7,1.2c-0.1,0-0.3,0-0.4-0.1c-1.5-0.5-4-1.5-5.2-2.1c-1.3-0.7-2.6-1-4-1s-2.7,0.3-4,1
	c-1.1,0.6-3.6,1.6-5.1,2c-0.1,0-0.3,0-0.4,0c-0.6,0-1.3-0.4-1.7-1.1l0,0l0,0c-0.3-0.5-0.6-1.2-0.6-1.8c0-0.7,0.2-1.4,0.6-1.8
	c2.7-3.5,4.5-6.2,5.8-9l0-0.1l0-0.1c0.4-1,1.2-1.8,2.3-2.4C21.5,19.8,22.7,19.5,23.7,19.5 M23.7,16.5c-1.6,0-3.3,0.5-4.6,1.2
	c-1.7,0.9-3,2.2-3.7,3.9c-1.2,2.6-2.8,5.1-5.4,8.4c-0.8,1-1.2,2.3-1.2,3.7c0,1.2,0.4,2.5,1.1,3.5c1,1.6,2.6,2.4,4.2,2.4
	c0.4,0,0.8,0,1.2-0.1c1.7-0.5,4.5-1.6,5.8-2.3c0.9-0.5,1.7-0.7,2.6-0.7s1.8,0.2,2.6,0.7c1.4,0.7,4.1,1.8,5.8,2.3
	c0.4,0.1,0.8,0.2,1.2,0.2c1.6,0,3.1-0.9,4.2-2.4c0.7-1,1.1-2.3,1.1-3.5c0-1.4-0.4-2.6-1.2-3.7c-2.1-2.9-4.2-5.6-5.3-8.5
	c-1.2-3.1-4.2-5-7.9-5.1C24,16.5,23.9,16.5,23.7,16.5C23.7,16.5,23.7,16.5,23.7,16.5z"/>
<path d="M13.8,5.1c0.1,0,0.1,0,0.2,0l0.1,0l0.1,0c0,0,0.2,0.1,0.8,0.4c0.9,0.7,1.6,1.7,2.1,3c0.5,1.2,0.6,2.5,0.4,3.5v0l0,0
	c-0.1,0.4-0.2,0.7-0.5,1c-0.1,0.1-0.3,0.3-0.5,0.4c-0.2,0-0.3,0.1-0.4,0.1c-0.1,0-0.1,0-0.2,0c0,0,0,0,0,0l-0.1,0l-0.3,0
	c0,0-0.2-0.1-0.8-0.4c-0.9-0.7-1.6-1.7-1.9-2.8l0-0.1l0-0.1c-0.5-1.2-0.6-2.5-0.4-3.5v0l0,0c0.1-0.4,0.2-0.7,0.5-1
	c0.1-0.1,0.3-0.3,0.5-0.4C13.6,5.1,13.7,5.1,13.8,5.1 M13.8,2.1c-0.5,0-1,0.1-1.4,0.2c-0.7,0.3-1.4,0.8-1.9,1.4
	c-0.4,0.6-0.8,1.3-1,2.2C9.1,7.5,9.3,9.4,10,11.2c0.6,1.8,1.7,3.3,3,4.3c0.7,0.5,1.4,0.9,2.1,1c0.3,0.1,0.6,0.1,1,0.1
	c0.5,0,0.9-0.1,1.4-0.2c0.7-0.3,1.4-0.8,1.9-1.4c0.4-0.6,0.8-1.3,1-2.2c0.4-1.6,0.2-3.5-0.5-5.3s-1.8-3.3-3.1-4.3
	c-0.7-0.5-1.4-0.9-2.1-1C14.4,2.1,14.1,2.1,13.8,2.1C13.8,2.1,13.8,2.1,13.8,2.1z"/>
<path d="M31.7,4L31.7,4L31.7,4L31.7,4l0.2,0c0.4,0.1,0.4,0.2,0.5,0.3l0.1,0.1l0.1,0.1c0,0,0.2,0.3,0.4,0.9C33.1,6.6,33,7.9,32.5,9
	c-0.5,1.2-1.2,2.3-2.1,3c-0.3,0.2-0.7,0.4-1.1,0.5c0,0-0.1,0-0.2,0c-0.1,0-0.2,0-0.3,0h0c-0.3-0.1-0.4-0.2-0.5-0.3
	c-0.2-0.4-0.4-0.6-0.4-0.8v-0.1l0-0.1c-0.2-1.2-0.1-2.5,0.3-3.7c0.5-1.2,1.2-2.3,2.1-3C30.6,4.3,31,4.2,31.4,4C31.5,4,31.6,4,31.7,4
	 M31.7,1c-0.3,0-0.7,0.1-1.1,0.1c-0.7,0.2-1.4,0.5-2.1,1c-1.3,1-2.4,2.5-3.1,4.3s-0.8,3.7-0.5,5.3c0.1,0.9,0.5,1.6,0.9,2.2
	c0.5,0.7,1.1,1.1,1.9,1.4c0.4,0.2,0.9,0.2,1.4,0.2c0.3,0,0.6,0,1-0.1c0.7-0.2,1.4-0.5,2.1-1c1.3-1,2.4-2.5,3.1-4.3
	c0.7-1.8,0.8-3.7,0.5-5.3c-0.2-0.8-0.5-1.6-1-2.2c-0.5-0.7-1.1-1.1-1.9-1.4C32.5,1.1,32.1,1,31.7,1C31.7,1,31.7,1,31.7,1z"/>
<path d="M4.1,16.6c0.1,0,0.3,0,0.8,0.2c0.8,0.4,1.6,1,2.2,1.9c0.6,1,1,2,1.2,2.8c0,0.3,0,0.7,0,0.8l0,0.1l0,0.1c0,0,0,0,0,0l-0.1,0
	l0,0H7.9c-0.1,0-0.3,0-0.8-0.2c-0.8-0.4-1.6-1-2.2-1.9c-0.6-1-1-2-1.2-2.9c0-0.3,0-0.6,0-0.7C3.9,16.8,3.9,16.7,4.1,16.6
	C4,16.6,4,16.6,4.1,16.6 M4,13.6c-0.7,0-1.4,0.2-1.9,0.6s-0.9,1-1.2,1.7c-0.2,0.6-0.2,1.3-0.2,2c0.2,1.4,0.8,2.9,1.7,4.3
	c1,1.4,2.2,2.4,3.5,3c0.7,0.3,1.3,0.5,2,0.5H8c0.7,0,1.3-0.2,1.8-0.6c0.6-0.4,1-1,1.2-1.7c0.2-0.6,0.2-1.3,0.2-2
	c-0.2-1.4-0.8-2.9-1.7-4.3c-1-1.4-2.2-2.4-3.5-3C5.3,13.8,4.7,13.6,4,13.6C4,13.6,4,13.6,4,13.6z"/>
<path d="M42.3,14.9C42.3,14.9,42.3,14.9,42.3,14.9h0.1l0.1,0.1c0,0,0,0,0,0l0,0.1l0,0.1c0.1,0.2,0.1,0.5,0.1,0.6v0.1l0,0.1
	c-0.1,0.8-0.5,1.8-1.1,2.7c-0.8,1-1.6,1.7-2.3,2C38.6,21,38.4,21,38.4,21h-0.1l0,0l-0.1,0c0,0,0,0,0,0l0-0.1l0-0.1
	C38,20.6,38,20.3,38,20.2v-0.1l0-0.1c0.1-0.8,0.5-1.8,1.1-2.7c0.8-1,1.6-1.7,2.3-2.1C42,14.9,42.2,14.9,42.3,14.9 M42.2,11.9
	c-0.6,0-1.3,0.2-2,0.5c-1.3,0.6-2.5,1.7-3.5,3c-1,1.4-1.6,2.9-1.7,4.3c-0.1,0.7,0,1.4,0.2,2c0.2,0.7,0.6,1.3,1.2,1.7
	c0.5,0.4,1.2,0.6,1.8,0.6h0.1c0.6,0,1.3-0.2,2-0.5c1.3-0.6,2.5-1.7,3.5-3c1-1.4,1.6-2.9,1.7-4.3c0.1-0.7,0-1.4-0.2-2
	c-0.2-0.7-0.6-1.3-1.2-1.7C43.6,12.1,42.9,11.9,42.2,11.9C42.2,11.9,42.2,11.9,42.2,11.9z"/>
</svg>
